<?xml version="1.0" encoding="utf-8"?>
<!-- Generator: Adobe Illustrator 23.0.1, SVG Export Plug-In . SVG Version: 6.00 Build 0)  -->
<svg version="1.1" id="Layer_1" xmlns="http://www.w3.org/2000/svg" xmlns:xlink="http://www.w3.org/1999/xlink" x="0px" y="0px"
	 viewBox="0 0 1042 1024" style="enable-background:new 0 0 1042 1024;" xml:space="preserve">
<style type="text/css">
	.st0{fill:none;stroke:#DD7D1F;stroke-width:110.0402;stroke-linejoin:round;stroke-miterlimit:10;}
</style>
<path class="st0" d="M117.7,784.9l0.9,0.4v0.5l0.6-0.3l401.5,174.5l0.2,0.1l402-161.8l1.3-0.5l-0.9-0.4V250.6L521.2,63.9l-0.3-0.1
	L119,250.4l-0.3,0.2v534L117.7,784.9z M521,958.9l-400.3-174L521,611l400.3,186.8L521,958.9z M922.2,251.3v545.5L521.6,609.9
	l0-544.5L922.2,251.3z M119.8,784V251.3L520.4,65.4l0,544.5l-400.3,174L119.8,784z"/>
</svg>
