<?xml version="1.0" encoding="utf-8"?>
<!-- Generator: Adobe Illustrator 23.0.1, SVG Export Plug-In . SVG Version: 6.00 Build 0)  -->
<svg version="1.1" id="Capa_1" xmlns="http://www.w3.org/2000/svg" xmlns:xlink="http://www.w3.org/1999/xlink" x="0px" y="0px"
	 viewBox="0 0 512 512" style="enable-background:new 0 0 512 512;" xml:space="preserve">
<style type="text/css">
	.st0{fill:#4CC9E5;}
	.st1{fill:#4CC9DF;}
	.st2{fill:none;stroke:#101722;stroke-width:20;stroke-linejoin:round;stroke-miterlimit:10;}
</style>
<path class="st0" d="M499.6,407.5c-10.1,12.2-25.1,19.2-41,19.2H53.3c-15.8,0-30.8-7-41-19.2l195.6-163l20.3,13.9
	c16.7,11.5,38.8,11.5,55.5,0l20.3-13.9L499.6,407.5z"/>
<path class="st1" d="M502.6,108.6L304,244.5l-20.3,13.9c-16.7,11.5-38.8,11.5-55.5,0L208,244.5L9.4,108.4c10-14.4,26.4-23,43.9-23
	h405.3C476.3,85.2,492.8,94,502.6,108.6z"/>
<g>
	<path class="st1" d="M208,244.5l-195.6,163C4.4,397.9,0,385.8,0,373.3V138.7c-0.1-10.8,3.2-21.4,9.4-30.3L208,244.5z"/>
	<path class="st1" d="M512,138.7v234.7c0,12.5-4.4,24.6-12.4,34.1L304,244.5l198.6-135.9C508.8,117.4,512,127.9,512,138.7z"/>
</g>
<g>
	<g>
		<line class="st2" x1="304" y1="244.5" x2="499.6" y2="407.5"/>
	</g>
	<g>
		<path class="st2" d="M502.6,108.6L315.6,239.1c-7.7,5.4-15.9,9.9-24.6,13.4l-10.6,4.4c-15.6,6.4-33.1,6-48.3-1.1l-11.5-5.4
			c-8.4-3.9-16.5-8.6-24.2-13.8L9.4,108.4"/>
	</g>
	<line class="st2" x1="12.4" y1="407.5" x2="208" y2="244.5"/>
</g>
</svg>
