<svg id="link" width="13" height="13" viewBox="0 0 13 13" fill="none" xmlns="http://www.w3.org/2000/svg">
<g clip-path="url(#clip0_220_8)">
<path d="M5.38943 9.90849L3.85758 11.4403C3.22251 12.0754 2.19406 12.0754 1.55951 11.4405C0.924847 10.8058 0.924847 9.77725 1.55939 9.1427L4.62362 6.07847C5.25816 5.4439 6.28672 5.4439 6.92126 6.07847C7.13279 6.29 7.47577 6.29 7.6873 6.07847C7.89883 5.86694 7.89883 5.52396 7.6873 5.31243C6.62967 4.2548 4.91521 4.2548 3.85758 5.31243L0.793373 8.37664C-0.264254 9.43427 -0.264254 11.1487 0.793373 12.2064C1.85087 13.2645 3.56546 13.2645 4.62365 12.2064L6.1555 10.6745C6.36703 10.463 6.36703 10.12 6.1555 9.90847C5.94397 9.69694 5.60096 9.69696 5.38943 9.90849Z" fill="#4A8FB5"/>
<path d="M12.2066 0.793205C11.149 -0.264422 9.43399 -0.264422 8.37637 0.793205L6.53848 2.63109C6.32695 2.84262 6.32695 3.1856 6.53848 3.39713C6.75001 3.60866 7.09299 3.60866 7.30452 3.39713L9.14241 1.55924C9.77695 0.924679 10.806 0.924679 11.4406 1.55924C12.0751 2.19379 12.0751 3.22234 11.4406 3.85688L8.07033 7.22718C7.43577 7.86174 6.40724 7.86174 5.77269 7.22718C5.56116 7.01565 5.21819 7.01565 5.00666 7.22718C4.79512 7.43871 4.79512 7.78169 5.00666 7.99322C6.06428 9.05084 7.77874 9.05084 8.83637 7.99322L12.2066 4.62295C13.2643 3.56532 13.2643 1.85083 12.2066 0.793205Z" fill="#4A8FB5"/>
</g>
<defs>
<clipPath id="clip0_220_8">
<rect width="13" height="13" fill="white"/>
</clipPath>
</defs>
</svg>
