<svg id="signature"  viewBox="0 0 300 200" fill="none" xmlns="http://www.w3.org/2000/svg">
<path d="M34.8925 163.48C32.2027 90.2303 31.7649 56.8128 21.6863 24.7409C40.6702 14.1095 92.8346 10.5481 103.4 39.8906C113.964 69.2331 81.1141 90.1238 46.4479 90.1238C55.8023 87.9975 79.7476 91.2064 89.368 94.1105C142.193 110.058 129.812 168.264 49.7494 185.009C20.0355 191.223 10.7174 167.28 16.734 139.56C27.464 90.1238 86.7855 98.4665 119.907 124.41M119.907 124.41C150.447 148.33 133.939 187.401 104.225 178.63C74.5112 169.859 80.2889 124.41 119.907 124.41ZM136.415 180.224C132.288 152.317 161.177 51.8508 161.177 31.1197C161.727 36.7011 147.97 155.028 161.177 159.493C174.383 163.959 190.51 140.889 192.541 131.586C191.147 143.315 209.053 199.919 237.111 152.317V173.048L247.016 159.493C244.54 164.012 254.775 173.048 266 173.048" stroke="#4A8FB5" stroke-width="8" stroke-linecap="round" stroke-linejoin="round"/>
</svg>
