<svg width="800" height="800" viewBox="0 0 800 800" fill="none" xmlns="http://www.w3.org/2000/svg">
<path d="M400 0C179.086 0 0 179.086 0 400C0 620.914 179.086 800 400 800C620.914 800 800 620.914 800 400C800 179.086 620.914 0 400 0ZM51.2669 425.001H137.05C138.958 466.508 145.231 504.483 154.973 538.588H78.7461C63.4824 503.345 54.1192 465.074 51.2669 425.001ZM523.396 375.001C521.515 334.816 516.751 296.753 510.302 261.414H592.248C603.156 294.955 610.643 332.777 612.901 375.001H523.396ZM336.947 538.588C329.891 499.628 326.428 461.598 325.786 425.001H474.216C473.576 461.598 470.111 499.628 463.053 538.588H336.947ZM452.16 588.588C440.438 633.589 423.469 679.461 399.995 725.433C376.524 679.461 359.559 633.589 347.838 588.588H452.16ZM326.467 375.001C328.447 334.586 333.558 296.503 340.343 261.414H459.657C466.444 296.503 471.553 334.586 473.535 375.001H326.467ZM351.579 211.416C367.203 150.421 386.508 102.297 399.997 72.6678C413.487 102.297 432.793 150.421 448.421 211.416H351.579ZM499.706 211.416C483.755 145.314 463.273 92.2155 448.07 57.8971C466.965 71.342 529.739 121.037 572.56 211.416H499.706ZM351.923 57.8939C336.72 92.2122 316.242 145.313 300.292 211.416H227.43C270.256 121.029 333.035 71.3339 351.923 57.8939ZM289.698 261.416C283.249 296.754 278.487 334.818 276.606 375.002H187.091C189.349 332.78 196.834 294.957 207.744 261.416H289.698ZM137.104 375.001H51.2669C54.1192 334.927 63.4808 296.66 78.7445 261.414H155.319C145.505 295.513 139.109 333.463 137.104 375.001ZM187.064 425.001H275.92C276.488 461.66 279.572 499.639 286.109 538.588H207.77C196.769 504.96 189.257 467.127 187.064 425.001ZM296.464 588.588C308.728 639.499 326.945 691.533 353.189 743.776C335.479 731.097 271.102 680.459 227.453 588.588H296.464ZM446.751 743.889C473.027 691.608 491.26 639.536 503.536 588.588H573.047C529.528 680.927 464.875 731.146 446.751 743.889ZM513.892 538.588C520.431 499.639 523.515 461.66 524.082 425.001H612.953C610.803 467.203 603.412 505.027 592.573 538.588H513.892ZM662.94 425.001H748.733C745.879 465.074 736.518 503.344 721.254 538.588H645.019C654.761 504.483 661.032 466.508 662.94 425.001ZM662.888 375.001C660.883 333.461 654.487 295.513 644.673 261.414H721.257C736.522 296.658 745.883 334.926 748.735 375.001H662.888ZM694.382 211.416H627.048C604.699 157.58 575.562 114.994 548.144 83.3567C608.122 111.536 658.805 156.075 694.382 211.416ZM251.84 83.3633C224.424 115.001 195.291 157.585 172.944 211.416H105.618C141.192 156.078 191.869 111.544 251.84 83.3633ZM105.62 588.588H172.537C194.549 641.873 223.273 684.317 250.5 715.99C191.117 687.775 140.927 643.507 105.62 588.588ZM549.512 715.984C576.731 684.313 605.451 641.869 627.458 588.588H694.38C659.076 643.504 608.89 687.768 549.512 715.984Z" fill="#4A8FB5"/>
</svg>
